<?xml version="1.0" encoding="UTF-8"?>
<svg id="Layer_2" xmlns="http://www.w3.org/2000/svg" version="1.1" viewBox="0 0 1187.6 329.5">
  <!-- Generator: Adobe Illustrator 29.3.1, SVG Export Plug-In . SVG Version: 2.1.0 Build 151)  -->
  <defs>
    <style>
      .st0 {
        fill: #503d39;
      }
    </style>
  </defs>
  <g id="Layer_1-2">
    <g>
      <path class="st0" d="M472.6,167.5c29.2-5.4,40.8,25.4,26.4,47.9-14.8,23.2-49.3,27.3-62.4,53.1l56.3-1.7c10.4,2.3.9,9.7-4,12.5-48.4,28.6-159,30.7-210,8.4-3.2-1.4-18.5-7.8-13.4-12.7,4.6-4.5,49.7-2,59-3.5l-12.4-16.1c-14.9-23.4-24.9-50.9-28.5-78.6-.5-4.1-2.8-17,.4-19.3s25.2-.9,31-1c46.3-1.4,92.6-2.9,139-4,15.3-.4,20.2-6.6,18.5,15h0ZM389.6,199.5c1.7-9,7.5-21.8-2.9-27.7-5.4-3.1-11.6-2.4-17.2.1-10.6,4.8-4.1,20.5-1,28.5-8.8-9.3-25-19.7-31.5-2s10.4,21,24.5,21c-9.9,6.9-25.1,18.3-11,29.4,15.4,12.2,24.8-2.7,27-17.4,3.6,4.1,3.7,10.4,7.2,15.3,10.6,15.2,29.9,1.1,26.6-11.6-.7-2.8-4.8-5.7-6.1-8.4l-8.6-6.3c12.1-2.1,29.9-5,23-21.6-7.1-17.1-20.9-10-30,.5h0ZM460.6,227.5c14.8-5,37.1-22.9,28.9-40.4-3.6-7.6-12-7.6-18.4-3.6l-10.5,44h0Z"/>
      <path class="st0" d="M706.6,168.5l7-9.5c44.9-34.4,77.5,14.3,70.9,58.9-3.6,24.1-24.3,55.6-51.4,55.6h-26.5v43.5c0,.9,3.1,6,4,7,2.3,2.5,5.8,2.4,6,5.5h-67c-.5-3.1,3.2-3,4.7-4.3,2.9-2.7,4.9-11.2,5.3-15.2-2-41.3,2.7-85.1,0-126-.4-6.1-1.6-14.5-6-18.9-2.1-2.1-5.5-1.7-5-4.5,14.2,0,28.2-3.7,41.8-7.7,2.6-.8,12.9-5.3,13.8-5.3.9,0,2.5,1,2.5,1.5v19.5h0ZM706.6,269.5c31-.3,34.2-47.7,31.9-70.4-1-10.3-7.8-29.6-20.4-29.6s-11.5,4.4-11.5,8.5v91.5Z"/>
      <path class="st0" d="M562.6,147.5v22l7.6-10.9c53.3-37.8,83.9,29.9,66.2,76.2-6.6,17.2-27.6,38.7-47.3,38.7h-26.5v41.5c0,1,2.7,7.4,3.5,8.5,2.2,2.7,6.3,2.5,6.5,6h-67c-.4-3.1,3.3-3.1,4.9-4.6,3.5-3.2,4.8-10.3,5.1-14.9-2.9-41.9,3.7-88.7,0-130-.3-3.1-1.4-8.5-2.8-11.2-2-3.9-6.1-4.4-7.2-8.3,19.8-.2,38.4-7.3,57-13h0ZM562.6,269.5c23.9.4,30.9-28.2,32-47.4.8-13.7.4-53.3-20.5-52.6-4.8.2-11.5,4.4-11.5,9.5v90.5h0Z"/>
      <path class="st0" d="M100.3,162.9c7.1,7.2,13.2,20.3,14.2,30.3,1.5,14.4-3.4,57.6,4.1,66.9,2.8,3.5,7.5,2.5,8,6.5-23.2,13.3-54.7,17.9-59.5-16-5.4,13.6-14.5,24.5-30,26-38.7,3.7-49.3-42.2-21.5-64.5,12.6-10.1,27.7-11.2,41.4-17.6,11.5-5.4,7.5-12.6-3.8-10.8-7.2,1.1-13.6,10.8-21.5,12.5-20.5,4.3-30.9-16-19.1-32.1,17.3-23.5,68.1-21,87.6-1.1h0ZM66.6,183.5v-19.5c0-1-3.3-9.8-4.1-10.9-6.4-8-13.6.8-13.9,8.8-.6,14.2,8.5,14.7,18,21.5h0ZM66.6,245v-53.5l-14.2,14.3c-8.4,12.6-9.9,54,14.2,39.2Z"/>
      <path class="st0" d="M1187.6,266.5c-23.3,13.5-54.1,17.8-59.5-16-4.6,10.6-11.1,20.7-22.7,24.3-43.4,13.4-61.8-43.6-23.5-66.5,7.7-4.6,39.6-13.7,41.8-17.2,4.4-7.2-3.9-8.4-9.5-7.5s-10.8,7.4-15.9,10.1c-24.5,12.8-41.6-16.8-18.6-35.6,27.3-22.4,82.5-11.4,93.4,25.4,5.9,20.1-2.3,61.6,5.6,75.4,3,5.1,7.6,3.4,8.8,7.6h0ZM1127.6,183.5v-19.5c0-2.6-3.9-11.1-6.4-12.6-7.7-4.3-11.3,3.8-11.6,10.5-.6,14.6,8.5,14.3,18.1,21.5h0ZM1127.6,245v-53.5l-14.2,14.3c-8.3,12.5-10,54.1,14.2,39.2Z"/>
      <path class="st0" d="M191,228.2c15.1,14.5,38.4,16.4,57.6,10.4-5.8,41.6-59.5,47.2-88.9,25.4-50.4-37.4-23.5-122.1,43.4-116.4,26.6,2.3,52.5,23.6,40.3,52.3-11.9,28.1-67.9,19.8-55.8-21.8,1.4-4.8,4.6-9,5.8-13.2,5.1-18.3-12.1-17.7-17.2.7-5.4,19.5,0,48.4,14.9,62.7h0Z"/>
      <path class="st0" d="M847.6,218.5c-1.3,1.1,8.2,10.9,9.5,12,15.1,12.2,36.5,13.7,54.5,8,.3,19.4-18.5,32.8-36,36.5-59,12.5-100.2-53.6-66.2-102.2,19.2-27.6,62.4-34.1,89.5-14.1,18.3,13.4,22.2,43.4-.6,54-4.2,1.9-17,5.8-21.2,5.8h-29.5ZM852.3,151.8c-19,3.9-16.9,49.5-8.2,61.7,4,5.6,16.7-1.4,20.4-5.4,3.2-3.5,6.8-11.6,7.8-16.2,2.9-13.3-.5-44.1-20-40h0Z"/>
      <path class="st0" d="M973.6,93.5v161.5c0,2.9,2.3,10.4,4.2,12.9,2.4,3.2,5.8,2.6,5.8,5.6h-67c-.2-3,3.7-2.3,6-4.8,2-2.2,3.7-6.7,4-9.7-2.5-43.6,3.3-90.9,0-134-.3-3.9-.8-6.8-2.8-10.2l-7.2-7.3c19.6-1.8,38.8-6.7,57-14h0Z"/>
      <path class="st0" d="M1043.6,93.5v161.5c0,3.3,3.1,12,5.6,14.4,2,2,5,1.2,4.4,4.1h-67l7.8-7.6c1.7-3,2-5.5,2.2-8.8,3.2-43.2-2.5-90.4,0-134.1l-3.2-8.8-6.8-6.7c19.6-1.6,38.8-6.6,57-14Z"/>
      <path class="st0" d="M439.5,33.7c.1,4.7.5,9.6.1,14.3-.8,12.4-2.9,31.8-5.1,43.9-1,5.7-3.7,10.5-9.4,12.7-10.9,4.1-20.5-4.8-12.6-14.6,3.9-4.8,8-5,13.6-6.4l4.3-34.5-26.3-14.6c-2.5,12.2-2.7,25-4.6,37.3-1.2,7.4-1.2,12.6-8.5,16.5-15.5,8.2-23.2-10.8-9-18,3-1.5,5.8-1.3,8.8-2.4l7-54.4,41.8,20.2h0Z"/>
      <path class="st0" d="M362.9,89.3c-1.8-2.8,0-5.7-.3-9.1-.7-7.7-8-15.5-15.9-15.6l10.5,47.9c-.8,12.1-9.2,21.1-22,19-11.3-1.9-7.7-20.2,0-26,2.7-2,8.3-2.8,8.6-5.5-1.6-15.9-9.4-33.6-11-49.1-.5-4.4-1.1-8.9,4.5-9.4s6.1,5.3,9.4,8.5c7.8,7.8,20.8,8.2,23,24,.7,4.7,1.1,19-6.7,15.2h0Z"/>
      <path class="st0" d="M378,8.2c.8,1.2,3.6,3,4.5,5,2.2,5,1.5,10.4-1,15.2h-2.9c1-6,2.5-11.3-4-14.8-2.8,7.8.5,27.5-8.4,31.1-14.4,5.7-13.8-14.4.5-14.5l.9-1.1c.1-3.6,2-27.4,3.2-28.3,4.5-3,5.9,5.5,7.3,7.6h0Z"/>
    </g>
  </g>
</svg>